<svg version="1.2" xmlns="http://www.w3.org/2000/svg" viewBox="0 0 845 443" width="845" height="443">
	<style>
		.s0 { fill: #324151 } 
		.s1 { fill: #0652bd } 
		.s2 { fill: #fa6b0c } 
	</style>
	<g>
	</g>
	<g>
		<path class="s0" d="m463.5 442c-8.5-0.8-13-2.6-18.3-7.5-5.9-5.3-8.2-10.7-8.3-19.3-0.1-11.4 4.4-18.3 16.1-24.3 3.8-2 6.1-2.3 14-2.4 8.4 0 10.1 0.3 15.2 2.8 3.2 1.6 6.7 4 7.8 5.5l2.1 2.6-4.3 2.2-4.3 2.2-2.5-2.3c-4-3.7-6.5-4.5-13.5-4.5-10 0-17.4 4.6-19.5 12.1-4.5 15.5 8.5 27.8 25.4 24 7.7-1.7 9.8-3.5 9.4-7.9l-0.3-3.7-8.3-0.3-8.3-0.3 0.3-3.7 0.3-3.7 12-0.3c10.4-0.2 12.1 0 13.2 1.5 1.9 2.5 1.7 16.3-0.3 19.1-1.7 2.5-9.3 6.6-13.9 7.6-5.4 1.1-6.9 1.2-14 0.6z"/>
		<path class="s0" d="m4.3 441.2l-4.3-0.3v-26-25.9h5 5v25.9c0 14.3-0.3 26.1-0.7 26.3-0.5 0.2-2.7 0.2-5 0z"/>
		<path class="s0" d="m689.2 438.9c-5.8-2.9-10.1-7.1-13.3-12.9-2.2-4.1-1.8-16.7 0.8-22.1 2.7-6 10.6-12.4 18.1-14.5 11.7-3.4 26.9 0.3 32.6 7.9 2 2.7 2 2.7 0 4.1-3.7 2.8-6.5 2.9-9.3 0.3-4.1-3.8-6.5-4.7-12.9-4.7-7.3 0-12 1.9-15.9 6.4-7.6 8.6-6.4 19.9 2.8 26.6 7.5 5.4 19.6 5 26.2-1l3.2-2.8 3.7 1.9c2.1 1.1 3.8 2.3 3.8 2.8 0 1.8-5.3 6.3-10.2 8.6-4.4 2.1-6.9 2.5-14.4 2.5-8.1 0-9.7-0.3-15.2-3.1z"/>
		<path class="s0" d="m41 415v-26h4.9 4.9l8.9 10.3c4.8 5.7 11.3 13.3 14.3 17 3 3.6 6.1 6.6 6.8 6.6 0.9 0.1 1.2-3.9 1.2-16.9v-17h5 5l-0.2 25.8-0.3 25.7-5 0.2-5 0.2-14.8-18c-8.2-9.9-15.2-17.8-15.5-17.4-0.3 0.3-0.5 7.6-0.4 16.1 0.2 8.6 0 16.4-0.3 17.5-0.5 1.5-1.6 1.9-5.1 1.9h-4.4z"/>
		<path class="s0" d="m135.8 419.3l-0.3-21.8-8.7-0.3c-7.6-0.2-8.8-0.5-9.3-2.2-0.4-1.1-0.3-2.9 0-4 0.6-1.9 1.5-2 24.1-2h23.5l-0.3 3.8-0.3 3.7-9.2 0.3-9.3 0.3v21.9 22h-5-5z"/>
		<path class="s0" d="m192 415v-26h20.4c11.3 0 20.7 0.3 20.9 0.8 0.3 0.4 0.2 2.2 0 4l-0.5 3.2h-15.3-15.3l-0.4 6.6c-0.1 3.6-0.1 6.8 0.1 7 0.2 0.2 6.9 0.4 14.8 0.4h14.3v4 4h-14.5-14.5v7 7h15.5c16.9 0 17.4 0.2 16.1 5.5l-0.6 2.5h-20.5-20.5z"/>
		<path class="s0" d="m263 415v-26h5 5v22 22h14 14v4 4h-19-19z"/>
		<path class="s0" d="m329.9 439.3c-0.3-7.6-0.4-48.1-0.1-49 0.3-0.8 2.2-1.3 4.8-1.3 5 0 4.7-0.8 4.8 12 0.1 4.7 0.2 13.8 0.4 20.3l0.2 11.7h14 14v4 4h-19c-17.4 0-19-0.1-19.1-1.7z"/>
		<path class="s0" d="m397 415v-26h5 5v26 26h-5-5z"/>
		<path class="s0" d="m523 415v-26h21.1 21l-0.3 3.8-0.3 3.7-15.6 0.3c-17.8 0.3-17.2 0-16 9.3l0.6 4.4 14.3 0.3 14.3 0.3-0.3 3.7-0.3 3.7-14.2 0.3-14.3 0.3-0.1 5.4c-0.1 3-0.2 6.1-0.3 6.8-0.1 0.9 4 1.3 15.9 1.7l16 0.5v3.5 3.5l-20.7 0.3-20.8 0.2z"/>
		<path class="s0" d="m594 415v-26h5.4 5.4l10.8 13.2c6 7.3 12.8 15.4 15.2 18.1l4.2 4.8v-18.1-18h5 5v26 26h-5-4.9l-9.8-11.8c-5.4-6.5-12-14.6-14.8-18-2.7-3.4-5.3-6.2-5.7-6.2-0.5 0-0.8 8.1-0.8 18v18h-5-5z"/>
		<path class="s0" d="m758 415v-26h20.5 20.5v4 3.9l-15.7 0.3-15.8 0.3v6.5 6.5l13.5 0.2c7.4 0.1 14.1 0.2 14.8 0.3 0.7 0 1.2 1.5 1.2 4v4h-14.4c-16.3 0-15.6-0.4-15.6 8.6v5.4h16 16v4 4h-20.5-20.5z"/>
		<path class="s0" d="m41 325.4c1.4-1.5 11.2-10.5 21.8-20l19.2-17.3 67.8-0.3 67.7-0.3 5.7-2.8c23-11.3 22.1-43.4-1.4-54.3l-6.3-2.9-72.2-0.3-72.3-0.3v20.9 20.8l-17.8 17.7c-9.8 9.7-18.1 17.7-18.5 17.7-0.4 0-0.7-46.6-0.7-103.5v-103.6l88.8 0.3 88.7 0.3 8 2.7c25.5 8.7 41.7 28.1 44.6 53.8 1.9 16.4-3.8 31.7-16.7 44.6-4.1 4-7.4 7.7-7.4 8.1 0 0.5 3.4 2.6 7.7 4.7 19.7 10.1 31.8 29.6 31.7 51.1 0 18.1-6.1 32.2-19.4 45.5-8.9 8.9-15 12.6-28.2 17.2l-6.3 2.2-93.5 0.3-93.4 0.4zm163.2-135.5c10-2.1 19.6-9.8 21.7-17.6 1.5-5.4 1.4-15.8-0.3-19.8-2.4-5.7-9.2-12.2-15.4-14.7l-5.7-2.3h-59.5c-32.7 0-62.8 0.1-66.7 0.3l-7.3 0.4v27.4 27.4h64c42.6 0 65.7-0.4 69.2-1.1z"/>
		<path class="s0" d="m459 327.6c0-0.3 8.8-9.2 19.6-19.8l19.6-19.3 82.6-0.5 82.7-0.5 4.8-2.2c7.4-3.4 10.6-6.1 14.5-12.2 3.2-5 3.6-6.5 4-13.8 0.8-14.8-5.5-25.2-18.4-30.4l-5.9-2.4-69-0.5c-68.9-0.5-69-0.5-76-2.9-10.6-3.5-17.9-7.8-24.8-14.5-10.3-10.1-16-23.7-17.3-40.9l-0.7-9.7 19.4 0.2 19.4 0.3 0.6 6.5c0.3 3.6 1 7.7 1.7 9.1 1.9 4.7 7 9.6 12.4 12l5.3 2.4 66 0.3c61.8 0.2 66.5 0.4 74.4 2.2 20.3 4.8 35.8 16.8 44.9 34.5 8.9 17.5 9.5 43.4 1.5 62-6.1 13.9-18.6 27.4-30.8 33.1-15.4 7.3-7.3 6.8-124.7 7.2-58.2 0.1-105.8 0-105.8-0.2z"/>
		<path class="s0" d="m579 98.8c0.1-0.7 1.6-2.3 3.5-3.5l3.5-2.2v3.4c0 3.3-0.2 3.5-3.5 3.5-2.2 0-3.5-0.5-3.5-1.2z"/>
	</g>
	<g>
		<path class="s1" d="m374.3 328.2l-18.3-0.2v-95.4c0-86.1-0.2-95.4-1.6-96-0.9-0.3-16.4-0.6-34.5-0.6h-32.9l-14.4-19.2c-8-10.6-14.3-19.4-14.2-19.5 0.1-0.2 73.1-0.3 162.2-0.3 160.5 0 161.9 0 163.2-2 1-1.7 2.3-2 9.3-2 6.8 0 8 0.2 7 1.4-1.9 2.2 2.9 2.6 35.3 2.6l30.1 0.1-20 19.4-20 19.4-115.5 0.3-115.5 0.3-0.3 95.5c-0.1 52.5-0.5 95.7-1 96-0.4 0.3-8.9 0.4-18.9 0.2z"/>
	</g>
	<g>
		<path class="s2" d="m750.9 155.7c-3.1-1.7-5-3.7-6.8-7l-2.4-4.7h-48.3c-30.4 0-48.4-0.4-48.4-1 0-0.5 9.3-9.5 20.6-19.9 16.5-15.1 21.4-19.1 24.3-19.6 2-0.4 15.5-0.6 30.1-0.5 14.6 0.1 41 0.2 58.8 0.1l32.2-0.1 0.9-2.2c1-2.6 5.5-7 8.8-8.7 1.2-0.6 4.6-1.1 7.6-1.1 5.9 0 10.4 2.3 13.9 7.1 2.9 3.8 3.5 13.5 1.3 18.3-5.6 11.8-23.7 12.9-30.5 1.8l-2.5-4.1-60-0.1h-60l-11 9.8-10.9 9.7 36.9 0.3c34.4 0.2 37 0.1 37.9-1.5 2-3.8 7.4-8.2 11.3-9.3 10.5-3.2 21.6 4.6 22.2 15.4 0.3 6.3-1.2 10.6-5.2 14.4-6 5.7-13.4 6.8-20.8 2.9zm12.5-7.7c1.5-0.5 3.4-2.5 4.3-4.5 1.6-3.3 1.6-3.7 0-7-0.9-1.9-3-4.1-4.6-5-2.7-1.4-3.5-1.4-6.5-0.1-4 1.7-5.6 4.2-5.6 8.6 0 7.1 5.5 10.7 12.4 8zm71.6-34.7c2.4-3 2.5-5.4 0.5-9.2-1.7-3.4-6.2-5.5-9.9-4.5-3.5 0.8-6.6 4.9-6.6 8.6 0 9 10.3 12.3 16 5.1z"/>
		<path class="s2" d="m583 95.9c0-0.6 13.7-12.5 28.9-25.1l5.6-4.7h13.7 13.7l8.4-7.3c4.6-4 14.9-12.9 22.8-19.8 7.9-6.8 14.9-12.9 15.5-13.5 0.6-0.6 3.9-3.5 7.3-6.5l6.3-5.5 34.1-0.5 34-0.5 2.2-4c3.4-6.1 7.6-8.5 14.7-8.5 7.8 0 12.2 2.2 15.3 7.5 4.7 7.9 2.8 17.8-4.5 23.6-2.9 2.3-4.6 2.9-9.7 3-7.3 0.2-11.6-1.8-15.2-7.4l-2.4-3.7h-32-32l-8.2 7.2c-4.5 4-15.4 13.6-24.3 21.3l-16.2 14 32.6 0.3 32.7 0.2 3.5-4.1c7.8-9.1 20.2-9.4 27.9-0.6 7.4 8.4 4.6 21.2-5.7 26.5-9.4 4.7-19.8 1.4-23.6-7.5l-1.4-3.3h-53.4-53.4l-5.4 4.8c-15.6 13.9-15.6 13.9-24.1 14.3-4.2 0.3-7.7 0.1-7.7-0.2zm167.1-18c4.5-4.8 3.3-10.7-2.9-13.6-3.1-1.5-3.6-1.5-6.8 0-4.4 2.2-6 5.6-4.8 10.4 1.7 6.8 9.5 8.5 14.5 3.2zm47-54.8c1.6-1.6 2.9-3.9 2.9-5.1 0-5.9-5.9-10.8-11.4-9.4-3.3 0.8-6.6 4.9-6.6 8.1 0 8.5 9.1 12.4 15.1 6.4z"/>
	</g>
</svg>